# xmcd CD database file
#
# Track frame offsets:
#	150
#	16509
#	31431
#	48150
#	65412
#	81024
#	102363
#	118538
#	137760
#
# Disc length: 2025 seconds
#
# Revision: 1
# Processed by: cddbd v1.5.1PL2 Copyright (c) Steve Scherf et al.
# Submitted via: CDex 1.51
#
DISCID=6807e709
DTITLE=Terry Talbot  - No Longer Alone 
DYEAR=1976
DGENRE=Country
TTITLE0=Gospel Light
TTITLE1=Take a Wife
TTITLE2=Down To the Well
TTITLE3=Oh Death!...
TTITLE4=Behind the Door
TTITLE5=The Road
TTITLE6=See the Vision
TTITLE7=Jesus Man
TTITLE8=No Longer Alone
EXTD=YEAR: 1976
EXTT0=
EXTT1=
EXTT2=
EXTT3=
EXTT4=
EXTT5=
EXTT6=
EXTT7=
EXTT8=
PLAYORDER=
